<svg width="37" height="45" viewBox="0 0 37 45" fill="none" xmlns="http://www.w3.org/2000/svg">
<path d="M13.5699 1.25117C13.5699 1.25117 11.6275 0.404902 8.28741 1.02716L9.3297 2.02277C9.3297 2.02277 6.62923 1.89832 4.65125 2.95615C4.65125 2.95615 4.99473 3.69042 5.38559 3.96421C5.38559 3.96421 2.21135 5.59452 1.7139 7.41151C1.7139 7.41151 3.59712 6.56524 4.41437 6.62747C4.41437 6.62747 1.6073 9.3654 1.7139 12.8749C1.7139 12.8749 2.21135 12.2029 2.74434 12.0038C2.74434 12.0038 1.69021 15.5008 2.04554 17.2183L3.30102 16.26C3.30102 16.26 2.48377 18.5872 2.6259 20.9394L3.18258 20.4789C3.18258 20.4789 2.74434 22.9555 3.08782 25.1832C3.08782 25.1832 3.44315 23.7644 4.27224 22.7812C4.27224 22.7812 4.80523 26.2783 6.4871 28.2198C6.4871 28.2198 6.60554 26.3779 6.90165 25.7183C6.90165 25.7183 7.86102 27.6722 9.14019 28.4811C9.14019 28.4811 8.90331 27.7717 8.927 26.9877C8.927 26.9877 9.48368 27.498 10.2772 27.6224C10.2772 27.6224 10.0167 26.2037 10.2299 24.8347C10.2299 24.8347 11.2129 26.913 12.1131 27.8962L12.1131 30.8084L12.5987 32.2769L12.6934 30.9577C12.6934 30.9577 12.9303 26.5023 12.5987 22.6817L11.2958 21.6487L11.2011 21.2381L9.72056 21.2381L9.42446 23.6524L9.86269 24.088C9.86269 24.088 9.49552 25.4072 9.67318 26.5895L8.69012 25.5565C8.69012 25.5565 8.35848 26.0917 8.47692 26.7761C8.47692 26.7761 7.84918 26.0419 7.2925 24.1751C7.2925 24.1751 6.57001 24.6356 6.17915 26.3032C6.17915 26.3032 5.48035 24.7102 5.12502 21.3874C5.12502 21.3874 4.23671 21.5616 3.56159 22.9555C3.56159 22.9555 3.70372 20.2176 4.30777 18.6744C4.30777 18.6744 3.68003 18.8984 3.25364 19.3837C3.25364 19.3837 3.90507 15.2893 5.27899 13.0492C5.27899 13.0492 4.14195 13.7585 2.69696 15.812C2.69696 15.812 2.88647 12.85 3.92876 10.7468C3.92876 10.7468 3.11151 10.8713 2.31795 11.6802C2.31795 11.6802 3.40762 8.03377 5.51588 6.14211C5.51588 6.14211 4.48544 5.94299 3.34839 6.4159C3.34839 6.4159 4.16564 4.84781 6.81874 4.13844C6.81874 4.13844 5.75276 3.75264 5.4685 3.40418C5.4685 3.40418 8.19266 2.18456 10.3128 2.66992C10.3128 2.66992 10.3483 2.13478 9.51921 1.54985C9.51921 1.54985 11.8525 1.16405 12.9896 1.64942C12.9896 1.64942 12.575 2.03521 12.2907 2.73214C12.2907 2.73214 14.4345 1.18895 16.4599 0.678695C16.4599 0.678695 15.5953 1.71164 15.5005 2.27167C15.5005 2.27167 17.2061 1.18895 20.2737 1.05205C20.2737 1.05205 19.0182 1.73653 18.0352 3.08061C18.0352 3.08061 20.2974 2.22189 24.2534 2.54546C24.2534 2.54546 22.8557 3.13039 21.9201 4.41223C21.9201 4.41223 26.4682 3.93932 29.7609 5.44518C29.7609 5.44518 27.3328 5.6443 26.0063 6.87637C26.0063 6.87637 28.3633 6.67725 30.9098 7.26217C30.9098 7.26217 29.5477 7.64797 28.8607 8.36979C28.8607 8.36979 30.1399 8.53157 30.9098 9.87565C30.9098 9.87565 29.8557 9.7512 29.3582 10.0997C29.3582 10.0997 30.969 11.3442 31.2177 13.5967C31.2177 13.5967 30.0096 12.4269 28.8844 12.3896C28.8844 12.3896 29.8438 14.2812 30.0333 15.7871C30.0333 15.7871 28.4462 14.6421 27.2736 14.443L27.6763 15.1275C27.6763 15.1275 29.8201 15.7746 30.8743 16.9569C30.8743 16.9569 30.9098 14.6421 30.3176 13.7212C30.3176 13.7212 31.502 14.2812 32.2126 15.0279C32.2126 15.0279 32.2126 12.3896 30.8506 10.7841C30.8506 10.7841 31.2177 10.5228 32.2126 10.8215C32.2126 10.8215 31.9639 9.25339 30.282 8.30756C30.282 8.30756 30.815 7.62308 32.0824 7.62308C32.0824 7.62308 31.0874 6.35367 28.5054 6.37856C28.5054 6.37856 29.903 5.79364 31.3599 5.85587C31.3599 5.85587 30.1754 3.86465 24.5258 3.56597C24.5258 3.56597 24.9285 2.84415 26.8235 2.52057C26.8235 2.52057 26.1129 1.25117 20.5461 1.89832C20.5461 1.89832 21.6003 0.852927 22.9742 0.678695C22.9742 0.678695 21.7187 -0.478702 17.2535 0.678695C17.2535 0.678695 17.4666 0.280451 18.1181 0.168444C18.1773 0.155999 16.531 -0.615599 13.5699 1.25117Z" fill="white"/>
<path d="M29.3698 18.0517C29.7843 17.0935 29.8791 16.7574 29.1802 16.2348C28.5051 15.7369 27.7589 15.152 27.7116 15.1147L27.4865 14.4675L27.1549 14.2062L27.451 13.8204L26.4087 12.4265C26.4087 12.4265 26.0297 12.0781 25.852 12.3021C25.6625 12.5261 25.1532 13.3101 24.7979 13.4719C24.7979 13.4719 24.561 12.887 24.5136 11.9785C24.5136 11.9785 23.649 12.1776 23.0686 13.0364C23.0686 13.0364 22.7015 12.9368 22.3225 12.3768C22.3225 12.3768 21.446 12.8746 21.3039 14.0693C21.3039 14.0693 20.9367 13.8453 20.5103 13.2106C20.5103 13.2106 19.4206 14.0942 19.2311 15.2391C19.2311 15.2391 18.7218 14.9156 18.0467 13.7208C18.0467 13.7208 17.3479 14.4551 16.7202 16.7823L15.2989 15.849C15.2989 15.849 14.7422 16.7326 14.5527 18.1015C14.5527 18.1015 13.5933 18.002 12.9182 17.417C12.9182 17.417 12.705 18.338 12.705 19.1096C12.705 19.1096 12.2786 19.2465 11.6627 18.8233C11.6627 18.8233 11.5798 20.4288 11.7219 21.9595C11.7456 22.1586 11.7575 22.3578 11.793 22.5569L12.1483 22.8307C12.1483 22.8307 12.1365 22.7436 12.1246 22.5818L12.1128 22.4573C12.1128 22.4449 12.1128 22.4324 12.1128 22.42C12.1128 22.3702 12.1009 22.3204 12.1009 22.2706C12.0654 21.6359 12.0417 20.5408 12.1365 19.4954C12.1365 19.4954 12.8234 19.9185 13.1314 20.2421C13.1314 20.2421 13.0366 19.0847 13.2261 18.2384C13.2261 18.2384 14.1618 18.338 15.1212 19.0722C15.1212 19.0722 15.0738 17.8526 15.4292 16.7077C15.4292 16.7077 16.3412 17.0561 16.9689 17.6659C16.9689 17.6659 17.5966 16.4588 17.8335 15.1645C17.8335 15.1645 18.7692 16.073 19.7167 16.5334C19.7167 16.5334 19.7997 15.0774 20.2971 14.1564C20.2971 14.1564 20.8775 14.2933 21.4105 14.7787C21.4105 14.7787 21.7421 13.8204 22.2159 13.3226C22.2159 13.3226 22.3343 13.4097 22.5357 13.6337C22.8199 13.9448 22.9384 14.3929 22.8199 14.8036C22.5475 15.7494 21.446 15.5627 21.138 15.3636C20.8064 15.152 20.6524 14.9405 20.6524 14.9405C20.6524 14.9405 20.3445 15.6623 21.1144 15.9983C21.8961 16.3219 23.2226 15.9858 23.5543 15.8241C23.8859 15.6623 24.3952 15.1147 24.1465 14.4551C23.8977 13.7955 23.2345 13.8702 23.2345 13.8702L24.0399 12.9368C24.0399 12.9368 24.182 13.8079 24.4426 14.1191C24.4426 14.1191 25.2954 13.8951 25.7336 13.2355L25.7336 14.3182C25.7336 14.3182 27.5102 15.1022 28.6946 16.8446C28.8841 17.1184 28.9552 17.4793 28.8486 17.7904C28.7657 18.0517 28.5762 18.3255 28.1498 18.45C28.1498 18.45 27.8182 18.5247 27.451 18.2758C27.072 18.0144 26.4442 18.0642 26.1955 18.4251C25.9468 18.786 25.8876 19.3585 26.5271 19.6198C26.5271 19.6198 24.1938 19.3211 23.8504 20.827C23.5069 22.3329 23.8977 23.0173 24.1465 23.092C24.3952 23.1791 24.2531 22.4075 24.5492 22.0342C24.8453 21.6608 25.3664 21.1132 27.3444 21.3621L27.5813 21.972C27.5813 21.972 26.3021 22.3453 25.4967 21.9844C25.4967 21.9844 24.94 21.9346 25.4138 22.4449C25.8994 22.9551 27.6523 22.868 27.9958 22.6689L28.3867 23.8263C28.3867 23.8263 24.9992 23.4156 22.5593 24.3988C22.5593 24.3988 22.5001 24.4112 22.4054 24.4361C22.2988 24.461 22.133 24.4983 21.9198 24.5481C21.7184 24.5854 21.4697 24.6352 21.1854 24.685C21.0551 24.7099 20.913 24.7223 20.759 24.7472C20.7235 24.7472 20.6998 24.7597 20.6643 24.7597C20.3563 24.797 20.0129 24.8343 19.6457 24.8592C19.5746 24.8592 19.4917 24.8717 19.4088 24.8717C19.1719 24.8841 18.935 24.8841 18.6863 24.8841C18.5323 24.8841 18.3665 24.8841 18.2007 24.8717L17.952 25.0459L17.2768 25.5064L16.8386 24.9712L16.3412 24.349L16.0214 23.9507L15.5594 23.3783L15.1804 22.9053L15.1331 22.8431L15.1567 22.9302L17.6085 31.1938L18.6863 31.8285L16.4714 25.6059L17.3361 26.7011L17.7861 26.6264L18.1533 28.5057L21.979 29.7999L23.2345 29.8248L21.0907 31.2187L20.5577 30.92L20.3445 31.0693L20.3682 33.9317L20.534 34.2553L21.3512 35.8856L21.4342 34.4918L21.4342 34.3922L22.6067 35.3256L22.6423 35.3505L22.7015 35.2136L24.4189 31.0196L24.4189 30.9449L24.4426 29.1652L26.3495 26.9873L27.0009 26.9127L29.3579 25.469L29.3579 23.4903L28.1261 21.3621C28.1261 21.3621 28.6828 21.0884 28.7302 20.4536C28.7775 19.8189 28.3393 19.6198 27.984 19.5452C27.984 19.5203 28.9434 19.01 29.3698 18.0517ZM27.1786 19.3834C26.9062 19.346 26.7167 19.1718 26.7285 18.9976C26.7522 18.8233 26.9891 18.6989 27.2496 18.7362C27.5221 18.7736 27.7116 18.9478 27.6997 19.122C27.676 19.2963 27.451 19.4207 27.1786 19.3834Z" fill="white"/>
<path d="M15.3105 19.5458L18.1768 25.4448C18.1768 25.4448 18.8756 25.1586 18.7809 25.0092C18.6861 24.8599 16.0804 20.1432 15.4764 19.3965L15.3105 19.5458Z" fill="white"/>
<path d="M17.834 20.8915L20.0725 25.7202L20.949 25.1478L17.9998 20.7422L17.834 20.8915Z" fill="white"/>
<path d="M16.127 24.4858C16.127 24.4858 18.4603 22.6937 20.4856 21.8848L20.0948 22.4075L21.2792 21.8848C21.2792 21.8848 17.3351 24.3613 16.6836 25.0956L16.127 24.4858Z" fill="white"/>
<path d="M13.6641 23.8011C13.6641 23.8011 18.3425 21.0134 19.5861 19.8809L18.4254 20.1547C18.4254 20.1547 15.5828 22.1583 13.6759 23.0419L13.6759 23.8011L13.6641 23.8011Z" fill="white"/>
<path d="M12.1113 22.4205C12.1113 22.4205 17.7373 19.0852 19.3837 18.0273L18.7914 19.0603L12.3956 23.0054L12.1232 22.5947L12.1113 22.4205Z" fill="white"/>
<path d="M12.8711 20.9134L16.1282 18.5363L16.6257 18.6359L19.3972 16.9434L16.4362 19.2706L13.1672 21.0129L12.8711 20.9134Z" fill="white"/>
<path d="M15.582 23.3308L18.7918 21.2649L19.1353 21.2649L19.9999 20.7422L15.8781 24.0526L15.582 23.3308Z" fill="white"/>
<path d="M18.2246 24.8341L21.4699 22.9922L20.6645 24.05L18.4852 25.4439L18.2246 24.8341Z" fill="white"/>
<path d="M20.6641 22.9922L20.7943 25.0954L21.28 24.9336L20.6641 22.9922Z" fill="white"/>
<path d="M21.7891 22.4199L21.9549 24.9587L22.4642 24.7845L22.1325 22.6315L21.7891 22.4199Z" fill="white"/>
<path d="M6.66406 20.8029C6.66406 20.8029 6.97201 22.2838 7.71819 23.2172C7.71819 23.2172 7.89586 21.9852 8.35778 20.5664C8.35778 20.5664 7.8011 21.1389 7.55238 22.1967C7.55238 22.2092 7.25627 21.8483 6.66406 20.8029Z" fill="white"/>
<path d="M8.96259 13.3614C8.96259 13.3614 8.52436 15.0539 9.50742 16.398C9.50742 16.398 10.2181 14.1454 11.5446 12.9258C11.5446 12.9258 10.2655 13.3489 9.61402 14.7552C9.61402 14.7552 9.24685 14.4814 8.96259 13.3614Z" fill="white"/>
<path d="M7.05546 7.88364C7.07915 7.83386 6.4514 8.45612 6.06055 9.45173C6.06055 9.45173 6.61722 9.04104 8.86762 8.94148C8.86762 8.94148 8.68995 8.56812 6.90148 8.81703C6.90148 8.81703 6.80673 8.369 7.05546 7.88364Z" fill="white"/>
<path d="M7.95508 5.17058C7.95508 5.17058 8.57098 5.22036 9.48298 5.60616C9.48298 5.60616 9.09212 5.17058 8.72495 5.04613C8.72495 5.04613 9.1395 4.68522 10.7148 4.52344C10.7029 4.53588 8.74864 4.42388 7.95508 5.17058Z" fill="white"/>
<path d="M15.2148 5.19592C15.2148 5.19592 17.2402 4.76034 19.384 4.84746C19.384 4.84746 17.8679 6.0173 17.2994 6.92579C17.2994 6.92579 17.4297 5.8804 17.939 5.35771C17.9508 5.37015 16.7783 5.12125 15.2148 5.19592Z" fill="white"/>
<path d="M25.2352 8.91797L26.8934 10.6603L24.418 10.8594C24.418 10.8594 25.0931 10.5358 26.0762 10.3492C26.0762 10.3367 25.4721 9.57756 25.2352 8.91797Z" fill="white"/>
<path d="M20.2246 8.91797L22.6527 8.91797L20.5562 10.6852L21.788 9.24154L20.2246 8.91797Z" fill="white"/>
<path d="M20.285 34.2441L18.9111 34.8913L19.8113 35.8122L20.1192 37.007L18.8045 36.1109L15.4052 35.1775L12.6218 35.1775C12.6218 35.1775 11.6269 35.8247 11.6388 35.8122C11.6506 35.8122 12.5863 37.2434 12.5863 37.2434L12.7521 38.0399L11.852 40.6783L12.2665 41.2632L14.2208 41.2632L18.6031 39.7947L19.6691 40.3671L21.73 40.2054L22.7723 38.9857L23.3053 39.2969L25.8873 39.2969L27.735 39.6204L27.6284 37.9777L27.2731 37.231L27.5573 35.5633L27.8416 34.4433L27.4271 34.2441L25.6978 34.605L23.1868 35.4887L22.5828 35.4389L21.1733 34.2441L20.285 34.2441Z" fill="#ED0000"/>
<path d="M10.9642 29.9629C10.9642 29.9629 7.29248 33.0991 5.125 34.3685C5.125 34.3685 8.72563 36.3597 10.1232 38.9109L12.1131 37.6042L11.9591 36.8202L10.4312 37.8655C10.4312 37.8655 8.78485 35.613 6.6529 34.4431C6.6529 34.4431 9.37706 32.651 10.6089 31.1825C10.6089 31.1825 13.2146 32.8128 14.5174 34.6423L15.2991 35.2894L16.1164 34.9285C16.1282 34.9285 12.9895 30.9461 10.9642 29.9629Z" fill="white"/>
<path d="M27.6383 35.9877C27.7213 35.6144 27.8515 35.1788 28.0529 34.7308C28.5977 33.4614 25.0445 34.2827 23.0191 35.0668C22.9125 35.1041 22.8059 35.1539 22.6993 35.1912L22.6638 35.1663L21.2662 33.8223L20.3542 33.9218C20.3542 33.9218 19.0276 34.2205 18.3407 35.2659C18.3407 35.2659 18.921 35.3032 19.5606 36.2491C19.5132 36.2117 18.2578 35.2908 16.0903 34.905C15.652 34.8303 15.1664 34.7681 14.6571 34.7557C14.4795 34.7432 14.29 34.7432 14.1005 34.7432C10.6538 34.7805 11.092 35.7513 11.092 35.7513C11.092 35.7513 11.1749 36.2491 11.6487 37.0456C11.7553 37.2322 11.8974 37.4314 12.0633 37.6554C12.158 37.7923 12.2765 37.9292 12.3949 38.0785C12.3949 38.0785 11.092 40.8164 11.0683 40.9782C11.0565 41.14 10.6183 41.7623 12.5489 41.6627C14.4795 41.5631 15.8534 41.5631 18.7078 40.0697C18.7078 40.0697 19.6791 41.14 20.9819 40.4306C20.9819 40.4306 22.5335 40.916 22.9007 39.4226C22.9007 39.4226 25.7551 39.3604 27.97 40.0822C27.97 40.0822 28.349 39.0243 27.6383 37.618C27.591 37.5185 27.5317 37.4189 27.4725 37.3069C27.4607 37.282 27.4725 36.7469 27.6383 35.9877ZM27.2475 37.506C27.2475 37.506 27.4962 38.1283 27.4015 39.2981C27.4015 39.2981 25.305 38.7754 23.3626 39.099C23.3626 39.099 23.4455 38.651 23.4929 38.0785C23.5047 37.9043 23.5166 37.73 23.5166 37.5309C23.5166 37.282 23.5166 37.0207 23.481 36.7842C23.4574 36.6224 23.4337 36.4731 23.3981 36.3362C23.3508 36.1495 23.2797 35.9877 23.1849 35.8508C23.1849 35.8508 24.0851 34.8677 27.3778 34.4196C27.3778 34.4196 27.8752 34.1832 27.4962 35.3281C27.2356 36.1371 26.9751 36.722 27.0106 37.1078C27.0224 37.282 27.0935 37.4189 27.2475 37.506ZM21.278 39.9204C21.278 39.9204 21.7281 38.6634 21.4675 37.506L21.053 37.7425C21.053 37.7425 21.2188 39.1986 20.5318 39.9204L19.8449 39.9204C19.8449 39.9204 21.3017 35.8384 19.3948 35.0543C19.3948 35.0543 19.9396 34.6312 20.674 34.8552C20.674 34.8552 20.4371 36.162 20.674 36.1993C20.9109 36.2366 21.9058 36.6598 21.9058 36.1993C21.9058 35.7388 21.657 35.0917 21.4675 34.9548C21.4675 34.9548 22.8059 35.465 22.7112 37.73C22.6164 40.0075 21.278 39.9204 21.278 39.9204ZM18.7078 39.2981C17.7248 39.4972 15.8179 40.4431 15.3204 40.7044C14.8229 40.9658 12.2765 41.6627 12.4304 40.3186C12.5844 38.9746 13.6622 37.6056 13.6622 37.6056C12.7858 37.5434 12.2409 36.3611 12.2409 36.3611C12.2409 36.3611 11.1276 35.4401 14.1123 35.353C16.3153 35.2908 18.4117 36.1495 19.3474 36.5975C19.5962 36.722 19.7975 36.9335 19.9041 37.1825C19.9396 37.2571 19.9633 37.3442 19.987 37.4314C19.9989 37.506 20.0107 37.5683 20.0107 37.6429C20.0107 37.7051 20.0107 37.7674 19.9989 37.8296C19.9989 37.8545 19.987 37.8794 19.987 37.9043C19.987 37.9167 19.987 37.9292 19.9752 37.9416C19.9633 38.0038 19.9515 38.0785 19.9396 38.1407C19.9159 38.2527 19.8804 38.3772 19.8567 38.5141C19.6791 39.1986 19.6909 39.1114 18.7078 39.2981Z" fill="white"/>
<path d="M20.002 37.2429C20.002 37.2429 18.8649 36.3967 16.4961 36.2598C16.4961 36.2598 19.2084 36.9567 20.1323 37.7283L20.002 37.2429Z" fill="white"/>
<path d="M19.8717 37.8145C19.8717 37.8145 18.4741 37.8393 16.4961 39.1959C16.4961 39.1959 19.0781 38.0758 20.2625 38.138L19.8717 37.8145Z" fill="white"/>
<path d="M20.0474 37.4427C20.0474 37.4427 18.0694 36.9573 14.4688 38.2765C14.4688 38.2765 19.5262 37.4551 20.2842 38.0774L20.0474 37.4427Z" fill="white"/>
<path d="M23.3051 36.4079C23.3051 36.4079 24.004 35.8479 25.7924 35.8105C25.7924 35.8105 23.9684 36.3084 23.3051 36.9306C22.6537 37.5653 23.3051 36.4079 23.3051 36.4079Z" fill="white"/>
<path d="M23.4588 37.5525C23.4588 37.5525 24.4893 37.2538 26.3962 38.1374C26.3962 38.1374 24.205 37.7765 23.1864 38.1748C22.1678 38.573 23.4588 37.5525 23.4588 37.5525Z" fill="white"/>
<path d="M22.5703 35.438L24.8207 29.9746C24.8207 29.9746 28.8003 32.7125 30.6954 33.397C30.6954 33.397 29.2267 34.99 27.6396 37.591L27.0237 37.1306C27.0237 37.1306 27.9713 35.1767 29.3333 33.7828C29.3333 33.7828 26.3723 32.4512 25.4129 31.244L22.8072 35.4505L22.5703 35.438Z" fill="white"/>
<path d="M16.6259 44.7368L15.3467 44.7368C14.5176 43.6043 13.9135 42.8203 13.5938 42.4096C14.0201 42.4096 14.6124 42.3847 15.1216 42.2852C15.702 43.0568 16.1995 43.9155 16.6259 44.7368Z" fill="white"/>
<path d="M25.3305 40.4438C24.3948 41.987 23.5894 43.443 22.9143 44.7373L22.1563 44.7373C22.7248 43.331 23.4473 41.7505 24.3356 40.2695C24.6317 40.3069 24.9633 40.3691 25.3305 40.4438Z" fill="white"/>
<path d="M6.09538 34.9668C6.09538 34.9668 4.16478 37.7047 0.777344 39.1857L2.61319 39.1857C2.61319 39.1857 4.85174 38.4265 7.61143 35.8006L6.36779 34.4316L6.09538 34.9668Z" fill="white"/>
<path d="M29.8178 34.4414C29.8178 34.4414 32.8736 38.0132 36.6993 39.1954L35.2069 39.1954C35.2069 39.1954 31.8195 38.5359 29.1309 35.3499L29.3441 34.4414L29.8178 34.4414Z" fill="white"/>
<path d="M21.1254 41.2774C21.1254 41.2774 20.9951 42.7833 20.699 44.7372L19.0053 44.7372C18.7684 43.5798 18.342 42.3726 17.584 41.2774L18.2473 40.9414C18.2473 40.9414 19.5146 42.7086 19.7396 44.6625C19.7396 44.6625 20.1305 43.7665 20.2963 41.489L21.1254 41.2774Z" fill="white"/>
</svg>
