<svg width="20" height="32" viewBox="0 0 20 32" fill="inherit" xmlns="http://www.w3.org/2000/svg">
<path d="M8.58333 6.08337H11.4167M6.03333 30.1667H13.9667C15.5535 30.1667 16.3469 30.1667 16.953 29.8579C17.4861 29.5863 17.9195 29.1528 18.1912 28.6197C18.5 28.0136 18.5 27.2202 18.5 25.6334V6.36671C18.5 4.77989 18.5 3.98648 18.1912 3.3804C17.9195 2.84728 17.4861 2.41383 16.953 2.14219C16.3469 1.83337 15.5535 1.83337 13.9667 1.83337H6.03333C4.44652 1.83337 3.65311 1.83337 3.04703 2.14219C2.5139 2.41383 2.08046 2.84728 1.80881 3.3804C1.5 3.98648 1.5 4.77989 1.5 6.36671V25.6334C1.5 27.2202 1.5 28.0136 1.80881 28.6197C2.08046 29.1528 2.5139 29.5863 3.04703 29.8579C3.65311 30.1667 4.44652 30.1667 6.03333 30.1667Z" stroke="white" stroke-width="2" stroke-linecap="round"/>
</svg>
